<mxfile host="app.diagrams.net" agent="Mozilla/5.0 (Windows NT 10.0; Win64; x64) AppleWebKit/537.36 (KHTML, like Gecko) Chrome/135.0.0.0 Safari/537.36" version="27.0.1">
  <diagram name="Page-1" id="9xw_SDZ-B9YmdhoBndlx">
    <mxGraphModel dx="3143" dy="2416" grid="1" gridSize="10" guides="1" tooltips="1" connect="1" arrows="1" fold="1" page="1" pageScale="1" pageWidth="827" pageHeight="1169" math="0" shadow="0">
      <root>
        <mxCell id="0" />
        <mxCell id="1" parent="0" />
        <mxCell id="zBYVLMfnAV8Geudsg8Gy-1" value="&lt;div&gt;&lt;font style=&quot;font-size: 20px;&quot;&gt;1. Bridge Pattern&lt;/font&gt;&lt;/div&gt;&lt;div&gt;&lt;font style=&quot;font-size: 20px;&quot;&gt;The Bridge Pattern is a structural design pattern that aims to decouple an abstraction from its implementation&lt;/font&gt;&lt;/div&gt;&lt;div&gt;&lt;font style=&quot;font-size: 20px;&quot;&gt;so that the two can evolve independently. In our system, we use the bridge to separate the logic that displays&lt;/font&gt;&lt;/div&gt;&lt;div&gt;&lt;font style=&quot;font-size: 20px;&quot;&gt;events (e.g., eventTabGUI, EventRecommendationFacade) from the logic that decides which events to&lt;/font&gt;&lt;/div&gt;&lt;div&gt;&lt;font style=&quot;font-size: 20px;&quot;&gt;recommend (RecommendationStrategy and its implementations).&lt;/font&gt;&lt;/div&gt;&lt;div&gt;&lt;font style=&quot;font-size: 20px;&quot;&gt;Why we chose it:&lt;/font&gt;&lt;/div&gt;&lt;div&gt;&lt;font style=&quot;font-size: 20px;&quot;&gt;- To keep the presentation layer independent of the recommendation engine.&lt;/font&gt;&lt;/div&gt;&lt;div&gt;&lt;font style=&quot;font-size: 20px;&quot;&gt;- To allow future changes in how recommendations are made without altering the GUI.&lt;/font&gt;&lt;/div&gt;&lt;div&gt;&lt;font style=&quot;font-size: 20px;&quot;&gt;- To promote maintainability and extensibility by adhering to separation of concerns.&lt;/font&gt;&lt;/div&gt;&lt;div&gt;&lt;font style=&quot;font-size: 20px;&quot;&gt;2.&lt;/font&gt;&lt;/div&gt;" style="text;html=1;align=center;verticalAlign=middle;resizable=0;points=[];autosize=1;strokeColor=none;fillColor=none;" parent="1" vertex="1">
          <mxGeometry x="-495" y="-95" width="990" height="250" as="geometry" />
        </mxCell>
        <mxCell id="zBYVLMfnAV8Geudsg8Gy-2" value="&lt;div&gt;&lt;font style=&quot;font-size: 20px;&quot;&gt;2. Composite Pattern&lt;/font&gt;&lt;/div&gt;&lt;div&gt;&lt;font style=&quot;font-size: 20px;&quot;&gt;The Composite Pattern is used to treat individual objects and compositions of objects uniformly. In our case,&lt;/font&gt;&lt;/div&gt;&lt;div&gt;&lt;font style=&quot;font-size: 20px;&quot;&gt;the CompositeRecommendationStrategy allows us to group multiple recommendation strategies and treat&lt;/font&gt;&lt;/div&gt;&lt;div&gt;&lt;font style=&quot;font-size: 20px;&quot;&gt;them as a single strategy.&lt;/font&gt;&lt;/div&gt;&lt;div&gt;&lt;font style=&quot;font-size: 20px;&quot;&gt;Why we chose it:&lt;/font&gt;&lt;/div&gt;&lt;div&gt;&lt;font style=&quot;font-size: 20px;&quot;&gt;- To combine multiple recommendation criteria (likes, profile, location) in a flexible way.&lt;/font&gt;&lt;/div&gt;&lt;div&gt;&lt;font style=&quot;font-size: 20px;&quot;&gt;- To enable dynamic configuration: strategies can be added, removed, or modified at runtime.&lt;/font&gt;&lt;/div&gt;&lt;div&gt;&lt;font style=&quot;font-size: 20px;&quot;&gt;- To aggregate results seamlessly without hard-coding logic into the facade.&lt;/font&gt;&lt;/div&gt;" style="text;html=1;align=center;verticalAlign=middle;resizable=0;points=[];autosize=1;strokeColor=none;fillColor=none;" parent="1" vertex="1">
          <mxGeometry x="-510" y="200" width="980" height="210" as="geometry" />
        </mxCell>
        <mxCell id="zBYVLMfnAV8Geudsg8Gy-3" value="&lt;div&gt;&lt;font style=&quot;font-size: 20px;&quot;&gt;3. Strategy Pattern&lt;/font&gt;&lt;/div&gt;&lt;div&gt;&lt;font style=&quot;font-size: 20px;&quot;&gt;The Strategy Pattern defines a family of algorithms, encapsulates each one, and makes them&lt;/font&gt;&lt;/div&gt;&lt;div&gt;&lt;font style=&quot;font-size: 20px;&quot;&gt;interchangeable. Each strategy implements the same interface and can be swapped without changing the&lt;/font&gt;&lt;/div&gt;&lt;div&gt;&lt;font style=&quot;font-size: 20px;&quot;&gt;code that uses it.&lt;/font&gt;&lt;/div&gt;&lt;div&gt;&lt;font style=&quot;font-size: 20px;&quot;&gt;Why we chose it:&lt;/font&gt;&lt;/div&gt;&lt;div&gt;&lt;font style=&quot;font-size: 20px;&quot;&gt;- Each recommendation criterion (likes, profile interests, proximity) is encapsulated in its own class.&lt;/font&gt;&lt;/div&gt;&lt;div&gt;&lt;font style=&quot;font-size: 20px;&quot;&gt;- New strategies can be added without modifying existing code.&lt;/font&gt;&lt;/div&gt;&lt;div&gt;&lt;font style=&quot;font-size: 20px;&quot;&gt;- It supports open-closed principle: system is open for extension but closed for modification.&lt;/font&gt;&lt;/div&gt;" style="text;html=1;align=center;verticalAlign=middle;resizable=0;points=[];autosize=1;strokeColor=none;fillColor=none;" parent="1" vertex="1">
          <mxGeometry x="-500" y="470" width="960" height="210" as="geometry" />
        </mxCell>
        <mxCell id="zBYVLMfnAV8Geudsg8Gy-4" value="&lt;div&gt;&lt;font style=&quot;font-size: 20px;&quot;&gt;4. Proxy Pattern&lt;/font&gt;&lt;/div&gt;&lt;div&gt;&lt;font style=&quot;font-size: 20px;&quot;&gt;The Proxy Pattern provides a surrogate or placeholder for another object to control access to it. Our system&lt;/font&gt;&lt;/div&gt;&lt;div&gt;&lt;font style=&quot;font-size: 20px;&quot;&gt;uses the LocationProxy to manage access to the user&#39;s location service.&lt;/font&gt;&lt;/div&gt;&lt;div&gt;&lt;font style=&quot;font-size: 20px;&quot;&gt;Why we chose it:&lt;/font&gt;&lt;/div&gt;&lt;div&gt;&lt;font style=&quot;font-size: 20px;&quot;&gt;- Location data is sensitive and must be accessed securely.&lt;/font&gt;&lt;/div&gt;&lt;div&gt;&lt;font style=&quot;font-size: 20px;&quot;&gt;- The proxy checks for user permissions, handles retries, and manages timeouts.&lt;/font&gt;&lt;/div&gt;&lt;div&gt;&lt;font style=&quot;font-size: 20px;&quot;&gt;- It allows the system to comply with privacy requirements like GDPR without complicating the main logic.&lt;/font&gt;&lt;/div&gt;" style="text;html=1;align=center;verticalAlign=middle;resizable=0;points=[];autosize=1;strokeColor=none;fillColor=none;" parent="1" vertex="1">
          <mxGeometry x="-500" y="715" width="970" height="180" as="geometry" />
        </mxCell>
        <mxCell id="zBYVLMfnAV8Geudsg8Gy-5" value="&lt;div&gt;&lt;font style=&quot;font-size: 20px;&quot;&gt;5. Adapter Pattern&lt;/font&gt;&lt;/div&gt;&lt;div&gt;&lt;font style=&quot;font-size: 20px;&quot;&gt;The Adapter Pattern allows objects with incompatible interfaces to work together by converting the interface&lt;/font&gt;&lt;/div&gt;&lt;div&gt;&lt;font style=&quot;font-size: 20px;&quot;&gt;of one class into an interface expected by the clients. In our system, the LocationServiceAdapter adapts the&lt;/font&gt;&lt;/div&gt;&lt;div&gt;&lt;font style=&quot;font-size: 20px;&quot;&gt;external Google Maps API for use within our internal logic.&lt;/font&gt;&lt;/div&gt;&lt;div&gt;&lt;font style=&quot;font-size: 20px;&quot;&gt;Why we chose it:&lt;/font&gt;&lt;/div&gt;&lt;div&gt;&lt;font style=&quot;font-size: 20px;&quot;&gt;- To isolate external APIs from our business logic.&lt;/font&gt;&lt;/div&gt;&lt;div&gt;&lt;font style=&quot;font-size: 20px;&quot;&gt;- To allow switching to a different maps provider in the future with minimal changes.&lt;/font&gt;&lt;/div&gt;&lt;div&gt;&lt;font style=&quot;font-size: 20px;&quot;&gt;- To standardize the way location data is requested, validated, and integrated.&lt;/font&gt;&lt;/div&gt;" style="text;html=1;align=center;verticalAlign=middle;resizable=0;points=[];autosize=1;strokeColor=none;fillColor=none;" parent="1" vertex="1">
          <mxGeometry x="-510" y="930" width="970" height="210" as="geometry" />
        </mxCell>
        <mxCell id="zBYVLMfnAV8Geudsg8Gy-6" value="eventTabGUI&#xa;" style="shape=swimlane;" parent="1" vertex="1">
          <mxGeometry x="850" y="-30" width="240" height="90" as="geometry" />
        </mxCell>
        <mxCell id="zBYVLMfnAV8Geudsg8Gy-7" value="&amp;nbsp; &amp;nbsp; &amp;nbsp; &amp;nbsp; &amp;nbsp; &amp;nbsp;+ displayEvents(events: List&amp;lt;Event&amp;gt;)&lt;div&gt;+ showError(message: String)&lt;/div&gt;" style="text;html=1;align=center;verticalAlign=middle;resizable=0;points=[];autosize=1;strokeColor=none;fillColor=none;" parent="zBYVLMfnAV8Geudsg8Gy-6" vertex="1">
          <mxGeometry x="-20" y="40" width="260" height="40" as="geometry" />
        </mxCell>
        <mxCell id="zBYVLMfnAV8Geudsg8Gy-8" value="EventRecommendationFacade&#xa;" style="shape=swimlane;" parent="1" vertex="1">
          <mxGeometry x="830" y="120" width="280" height="130" as="geometry" />
        </mxCell>
        <mxCell id="zBYVLMfnAV8Geudsg8Gy-9" value="&lt;br&gt;&lt;span style=&quot;background-color: transparent; color: light-dark(rgb(0, 0, 0), rgb(255, 255, 255));&quot;&gt;+ recommendEvents(user: User): List&amp;lt;Event&amp;gt;&lt;/span&gt;&lt;br&gt;&lt;span style=&quot;background-color: transparent; color: light-dark(rgb(0, 0, 0), rgb(255, 255, 255));&quot;&gt;+ setUserPreferences(user: User)&lt;/span&gt;&lt;br&gt;&lt;span style=&quot;background-color: transparent; color: light-dark(rgb(0, 0, 0), rgb(255, 255, 255));&quot;&gt;+ logError(message: String)&lt;/span&gt;&lt;br&gt;&lt;div&gt;+ buildRecommendationResponse(): Response&lt;/div&gt;" style="text;html=1;align=left;verticalAlign=middle;resizable=0;points=[];autosize=1;strokeColor=none;fillColor=none;" parent="zBYVLMfnAV8Geudsg8Gy-8" vertex="1">
          <mxGeometry y="20" width="280" height="90" as="geometry" />
        </mxCell>
        <mxCell id="zBYVLMfnAV8Geudsg8Gy-10" style="edgeStyle=orthogonalEdgeStyle;" parent="1" source="zBYVLMfnAV8Geudsg8Gy-6" target="zBYVLMfnAV8Geudsg8Gy-8" edge="1">
          <mxGeometry relative="1" as="geometry" />
        </mxCell>
        <mxCell id="zBYVLMfnAV8Geudsg8Gy-11" value="CompositeRecommendationStrategy&#xa;" style="shape=swimlane;" parent="1" vertex="1">
          <mxGeometry x="820" y="290" width="300" height="130" as="geometry" />
        </mxCell>
        <mxCell id="zBYVLMfnAV8Geudsg8Gy-12" style="edgeStyle=orthogonalEdgeStyle;exitX=0.5;exitY=1;exitDx=0;exitDy=0;" parent="1" source="zBYVLMfnAV8Geudsg8Gy-8" target="zBYVLMfnAV8Geudsg8Gy-11" edge="1">
          <mxGeometry relative="1" as="geometry">
            <mxPoint x="980" y="270" as="sourcePoint" />
          </mxGeometry>
        </mxCell>
        <mxCell id="zBYVLMfnAV8Geudsg8Gy-13" value="LikesStrategy&#xa;" style="shape=swimlane;" parent="1" vertex="1">
          <mxGeometry x="540" y="430" width="225" height="110" as="geometry" />
        </mxCell>
        <mxCell id="zBYVLMfnAV8Geudsg8Gy-14" value="+ recommend(user: User): List&amp;lt;Event&amp;gt;" style="text;html=1;align=center;verticalAlign=middle;resizable=0;points=[];autosize=1;strokeColor=none;fillColor=none;" parent="zBYVLMfnAV8Geudsg8Gy-13" vertex="1">
          <mxGeometry x="-5" y="40" width="230" height="30" as="geometry" />
        </mxCell>
        <mxCell id="zBYVLMfnAV8Geudsg8Gy-15" value="ProfileStrategy&#xa;" style="shape=swimlane;" parent="1" vertex="1">
          <mxGeometry x="805" y="565" width="220" height="80" as="geometry" />
        </mxCell>
        <mxCell id="zBYVLMfnAV8Geudsg8Gy-16" value="LocationStrategy&#xa;" style="shape=swimlane;" parent="1" vertex="1">
          <mxGeometry x="1105" y="510" width="275" height="110" as="geometry" />
        </mxCell>
        <mxCell id="zBYVLMfnAV8Geudsg8Gy-31" value="&lt;div&gt;&lt;br&gt;&lt;/div&gt;&lt;div&gt;&lt;br&gt;&lt;/div&gt;+ recommend(user: User): List&amp;lt;Event&amp;gt;&lt;br style=&quot;padding: 0px; margin: 0px;&quot;&gt;+ setLocationService(service)&lt;br style=&quot;padding: 0px; margin: 0px;&quot;&gt;+ filterEventsByDistance(events): List&amp;lt;Event&amp;gt;" style="text;html=1;align=left;verticalAlign=middle;resizable=0;points=[];autosize=1;strokeColor=none;fillColor=none;" parent="zBYVLMfnAV8Geudsg8Gy-16" vertex="1">
          <mxGeometry x="5" y="13" width="270" height="90" as="geometry" />
        </mxCell>
        <mxCell id="zBYVLMfnAV8Geudsg8Gy-17" style="edgeStyle=orthogonalEdgeStyle;" parent="1" source="zBYVLMfnAV8Geudsg8Gy-11" target="zBYVLMfnAV8Geudsg8Gy-13" edge="1">
          <mxGeometry relative="1" as="geometry" />
        </mxCell>
        <mxCell id="zBYVLMfnAV8Geudsg8Gy-18" style="edgeStyle=orthogonalEdgeStyle;" parent="1" source="zBYVLMfnAV8Geudsg8Gy-11" edge="1">
          <mxGeometry relative="1" as="geometry">
            <mxPoint x="911" y="560" as="targetPoint" />
            <Array as="points">
              <mxPoint x="970" y="420" />
              <mxPoint x="911" y="420" />
              <mxPoint x="911" y="511" />
              <mxPoint x="913" y="511" />
            </Array>
          </mxGeometry>
        </mxCell>
        <mxCell id="zBYVLMfnAV8Geudsg8Gy-19" style="edgeStyle=orthogonalEdgeStyle;" parent="1" source="zBYVLMfnAV8Geudsg8Gy-11" target="zBYVLMfnAV8Geudsg8Gy-16" edge="1">
          <mxGeometry relative="1" as="geometry" />
        </mxCell>
        <mxCell id="zBYVLMfnAV8Geudsg8Gy-20" value="LocationServiceAdapter&#xa;" style="shape=swimlane;" parent="1" vertex="1">
          <mxGeometry x="1105" y="657" width="260" height="100" as="geometry" />
        </mxCell>
        <mxCell id="zBYVLMfnAV8Geudsg8Gy-21" value="+ getCoordinates(): Coordinates&lt;br style=&quot;padding: 0px; margin: 0px;&quot;&gt;+ validateAccess(user: User): boolean" style="text;html=1;align=left;verticalAlign=middle;resizable=0;points=[];autosize=1;strokeColor=none;fillColor=none;" parent="zBYVLMfnAV8Geudsg8Gy-20" vertex="1">
          <mxGeometry x="5" y="40" width="230" height="40" as="geometry" />
        </mxCell>
        <mxCell id="zBYVLMfnAV8Geudsg8Gy-22" style="edgeStyle=orthogonalEdgeStyle;" parent="1" source="zBYVLMfnAV8Geudsg8Gy-16" target="zBYVLMfnAV8Geudsg8Gy-20" edge="1">
          <mxGeometry relative="1" as="geometry" />
        </mxCell>
        <mxCell id="zBYVLMfnAV8Geudsg8Gy-23" value="LocationProxy&#xa;" style="shape=swimlane;" parent="1" vertex="1">
          <mxGeometry x="1105" y="787" width="260" height="130" as="geometry" />
        </mxCell>
        <mxCell id="zBYVLMfnAV8Geudsg8Gy-24" style="edgeStyle=orthogonalEdgeStyle;" parent="1" source="zBYVLMfnAV8Geudsg8Gy-20" target="zBYVLMfnAV8Geudsg8Gy-23" edge="1">
          <mxGeometry relative="1" as="geometry" />
        </mxCell>
        <mxCell id="zBYVLMfnAV8Geudsg8Gy-25" value="GoogleMapsService&#xa;" style="shape=swimlane;" parent="1" vertex="1">
          <mxGeometry x="1105" y="970" width="265" height="110" as="geometry" />
        </mxCell>
        <mxCell id="zBYVLMfnAV8Geudsg8Gy-26" value="&lt;i&gt;&lt;b&gt;+ getCoordinates(): Coordinates&lt;br style=&quot;padding: 0px; margin: 0px;&quot;&gt;+ fetchCoordinatesFromAPI(): Coordinates&lt;br style=&quot;padding: 0px; margin: 0px;&quot;&gt;+ handleExternalErrors(): void&lt;/b&gt;&lt;/i&gt;" style="text;html=1;align=left;verticalAlign=middle;resizable=0;points=[];autosize=1;strokeColor=none;fillColor=none;" parent="zBYVLMfnAV8Geudsg8Gy-25" vertex="1">
          <mxGeometry x="-5" y="40" width="270" height="60" as="geometry" />
        </mxCell>
        <mxCell id="zBYVLMfnAV8Geudsg8Gy-27" style="edgeStyle=orthogonalEdgeStyle;" parent="1" source="zBYVLMfnAV8Geudsg8Gy-23" target="zBYVLMfnAV8Geudsg8Gy-25" edge="1">
          <mxGeometry relative="1" as="geometry" />
        </mxCell>
        <mxCell id="zBYVLMfnAV8Geudsg8Gy-28" value="&lt;div&gt;&lt;br&gt;&lt;/div&gt;&lt;div style=&quot;text-align: left;&quot;&gt;&lt;span style=&quot;background-color: transparent; color: light-dark(rgb(0, 0, 0), rgb(255, 255, 255));&quot;&gt;+ recommend(user: User): List&amp;lt;Event&amp;gt;&lt;/span&gt;&lt;/div&gt;&lt;div style=&quot;text-align: left;&quot;&gt;&lt;span style=&quot;background-color: transparent; color: light-dark(rgb(0, 0, 0), rgb(255, 255, 255));&quot;&gt;+ addStrategy(s: RecommendationStrategy)&lt;/span&gt;&lt;/div&gt;&lt;div style=&quot;text-align: left;&quot;&gt;&lt;span style=&quot;background-color: transparent; color: light-dark(rgb(0, 0, 0), rgb(255, 255, 255));&quot;&gt;+ removeStrategy(s: RecommendationStrategy)&lt;/span&gt;&lt;/div&gt;&lt;div style=&quot;text-align: left;&quot;&gt;&lt;span style=&quot;background-color: transparent; color: light-dark(rgb(0, 0, 0), rgb(255, 255, 255));&quot;&gt;+ clearStrategies()&lt;/span&gt;&lt;/div&gt;&lt;div style=&quot;text-align: left;&quot;&gt;&lt;span style=&quot;background-color: transparent; color: light-dark(rgb(0, 0, 0), rgb(255, 255, 255));&quot;&gt;+ aggregateResults(): List&amp;lt;Event&amp;gt;&lt;/span&gt;&lt;/div&gt;&lt;div&gt;&lt;br&gt;&lt;/div&gt;" style="text;html=1;align=center;verticalAlign=middle;resizable=0;points=[];autosize=1;strokeColor=none;fillColor=none;" parent="1" vertex="1">
          <mxGeometry x="840" y="318" width="280" height="110" as="geometry" />
        </mxCell>
        <mxCell id="zBYVLMfnAV8Geudsg8Gy-29" value="+ recommend(user: User): List&amp;lt;Event&amp;gt;" style="text;html=1;align=center;verticalAlign=middle;resizable=0;points=[];autosize=1;strokeColor=none;fillColor=none;" parent="1" vertex="1">
          <mxGeometry x="800" y="613" width="230" height="30" as="geometry" />
        </mxCell>
        <mxCell id="zBYVLMfnAV8Geudsg8Gy-30" value="&lt;b&gt;+ getCoordinates(): Coordinates&lt;br style=&quot;padding: 0px; margin: 0px;&quot;&gt;+ retryRequest(): boolean&lt;br style=&quot;padding: 0px; margin: 0px;&quot;&gt;+ checkAccess(user: User): boolean&lt;br style=&quot;padding: 0px; margin: 0px;&quot;&gt;+ handleTimeout(): void&lt;/b&gt;" style="text;html=1;align=left;verticalAlign=middle;resizable=0;points=[];autosize=1;strokeColor=none;fillColor=none;" parent="1" vertex="1">
          <mxGeometry x="1110" y="835" width="230" height="70" as="geometry" />
        </mxCell>
        <mxCell id="zBYVLMfnAV8Geudsg8Gy-33" value="&lt;div&gt;&lt;font style=&quot;font-size: 20px;&quot;&gt;1. eventTabGUI&lt;/font&gt;&lt;/div&gt;&lt;div&gt;&lt;font style=&quot;font-size: 20px;&quot;&gt;- displayEvents(events): Displays personalized events to the user.&lt;/font&gt;&lt;/div&gt;&lt;div&gt;&lt;font style=&quot;font-size: 20px;&quot;&gt;- showError(message): Shows an error message.&lt;/font&gt;&lt;/div&gt;&lt;div&gt;&lt;font style=&quot;font-size: 20px;&quot;&gt;Connected to: EventRecommendationFacade&lt;/font&gt;&lt;/div&gt;&lt;div&gt;&lt;font style=&quot;font-size: 20px;&quot;&gt;&lt;br&gt;&lt;/font&gt;&lt;/div&gt;&lt;div&gt;&lt;font style=&quot;font-size: 20px;&quot;&gt;2. EventRecommendationFacade&lt;/font&gt;&lt;/div&gt;&lt;div&gt;&lt;font style=&quot;font-size: 20px;&quot;&gt;- recommendEvents(user): Produces a list of recommended events.&lt;/font&gt;&lt;/div&gt;&lt;div&gt;&lt;font style=&quot;font-size: 20px;&quot;&gt;- setUserPreferences(user): Sets user preferences.&lt;/font&gt;&lt;/div&gt;&lt;div&gt;&lt;font style=&quot;font-size: 20px;&quot;&gt;- logError(message): Logs an error message.&lt;/font&gt;&lt;/div&gt;&lt;div&gt;&lt;font style=&quot;font-size: 20px;&quot;&gt;- buildRecommendationResponse(): Builds a response structure.&lt;/font&gt;&lt;/div&gt;&lt;div&gt;&lt;font style=&quot;font-size: 20px;&quot;&gt;Uses: RecommendationStrategy&lt;/font&gt;&lt;/div&gt;&lt;div&gt;&lt;font style=&quot;font-size: 20px;&quot;&gt;&lt;br&gt;&lt;/font&gt;&lt;/div&gt;&lt;div&gt;&lt;font style=&quot;font-size: 20px;&quot;&gt;&lt;br&gt;&lt;/font&gt;&lt;/div&gt;&lt;div&gt;&lt;font style=&quot;font-size: 20px;&quot;&gt;3. CompositeRecommendationStrategy&lt;/font&gt;&lt;/div&gt;&lt;div&gt;&lt;font style=&quot;font-size: 20px;&quot;&gt;- recommend(user): Aggregates results from all strategies.&lt;/font&gt;&lt;/div&gt;&lt;div&gt;&lt;font style=&quot;font-size: 20px;&quot;&gt;- addStrategy(strategy): Adds a strategy.&lt;/font&gt;&lt;/div&gt;&lt;div&gt;&lt;font style=&quot;font-size: 20px;&quot;&gt;- removeStrategy(strategy): Removes a strategy.&lt;/font&gt;&lt;/div&gt;&lt;div&gt;&lt;font style=&quot;font-size: 20px;&quot;&gt;- clearStrategies(): Clears all strategies.&lt;/font&gt;&lt;/div&gt;&lt;div&gt;&lt;font style=&quot;font-size: 20px;&quot;&gt;- aggregateResults(): Combines outputs from all strategies.&lt;/font&gt;&lt;/div&gt;&lt;div&gt;&lt;font style=&quot;font-size: 20px;&quot;&gt;Includes: LikesStrategy, ProfileStrategy, LocationStrategy&lt;/font&gt;&lt;/div&gt;&lt;div&gt;&lt;font style=&quot;font-size: 20px;&quot;&gt;&lt;br&gt;&lt;/font&gt;&lt;/div&gt;&lt;div&gt;&lt;font style=&quot;font-size: 20px;&quot;&gt;&lt;br&gt;&lt;/font&gt;&lt;/div&gt;&lt;div&gt;&lt;font style=&quot;font-size: 20px;&quot;&gt;4.&amp;nbsp;&lt;/font&gt;&lt;span style=&quot;font-size: 20px; background-color: transparent; color: light-dark(rgb(0, 0, 0), rgb(255, 255, 255));&quot;&gt;LikesStrategy&lt;/span&gt;&lt;/div&gt;&lt;div&gt;&lt;font style=&quot;font-size: 20px;&quot;&gt;- recommend(user): Recommends events based on user likes.&lt;/font&gt;&lt;/div&gt;&lt;div&gt;&lt;font style=&quot;font-size: 20px;&quot;&gt;&lt;br&gt;&lt;/font&gt;&lt;/div&gt;&lt;div&gt;&lt;font style=&quot;font-size: 20px;&quot;&gt;5. ProfileStrategy&lt;/font&gt;&lt;/div&gt;&lt;div&gt;&lt;font style=&quot;font-size: 20px;&quot;&gt;- recommend(user): Recommends events based on user profile interests.&lt;/font&gt;&lt;/div&gt;&lt;div&gt;&lt;font style=&quot;font-size: 20px;&quot;&gt;&lt;br&gt;&lt;/font&gt;&lt;/div&gt;&lt;div&gt;&lt;font style=&quot;font-size: 20px;&quot;&gt;6. LocationStrategy&lt;/font&gt;&lt;/div&gt;&lt;div&gt;&lt;font style=&quot;font-size: 20px;&quot;&gt;- recommend(user): Recommends events based on user&#39;s location.&lt;/font&gt;&lt;/div&gt;&lt;div&gt;&lt;font style=&quot;font-size: 20px;&quot;&gt;- setLocationService(service): Sets the location service.&lt;/font&gt;&lt;/div&gt;&lt;div&gt;&lt;font style=&quot;font-size: 20px;&quot;&gt;- filterEventsByDistance(events): Filters events based on proximity.&lt;/font&gt;&lt;/div&gt;&lt;div&gt;&lt;font style=&quot;font-size: 20px;&quot;&gt;Uses: LocationServiceAdapter&lt;/font&gt;&lt;/div&gt;&lt;div&gt;&lt;font style=&quot;font-size: 20px;&quot;&gt;&lt;br&gt;&lt;/font&gt;&lt;/div&gt;&lt;div&gt;&lt;font style=&quot;font-size: 20px;&quot;&gt;7. LocationServiceAdapter&lt;/font&gt;&lt;/div&gt;&lt;div&gt;&lt;font style=&quot;font-size: 20px;&quot;&gt;- getCoordinates(): Retrieves coordinates.&lt;/font&gt;&lt;/div&gt;&lt;div&gt;&lt;font style=&quot;font-size: 20px;&quot;&gt;- validateAccess(user): Validates if access to location is allowed.&lt;/font&gt;&lt;/div&gt;&lt;div&gt;&lt;font style=&quot;font-size: 20px;&quot;&gt;Uses: LocationProxy&lt;/font&gt;&lt;/div&gt;&lt;div&gt;&lt;font style=&quot;font-size: 20px;&quot;&gt;&lt;br&gt;&lt;/font&gt;&lt;/div&gt;&lt;div&gt;&lt;font style=&quot;font-size: 20px;&quot;&gt;&lt;div style=&quot;&quot;&gt;8. LocationProxy&lt;/div&gt;&lt;div style=&quot;&quot;&gt;- getCoordinates(): Safely retrieves coordinates.&lt;/div&gt;&lt;div style=&quot;&quot;&gt;- retryRequest(): Retries on failure.&lt;/div&gt;&lt;div style=&quot;&quot;&gt;- checkAccess(user): Checks user access rights.&lt;/div&gt;&lt;div style=&quot;&quot;&gt;- handleTimeout(): Handles request timeout.&lt;/div&gt;&lt;div style=&quot;&quot;&gt;Uses: GoogleMapsService&lt;/div&gt;&lt;div style=&quot;&quot;&gt;&lt;br&gt;&lt;/div&gt;&lt;div style=&quot;&quot;&gt;9. GoogleMapsService&lt;/div&gt;&lt;div style=&quot;&quot;&gt;- getCoordinates(): Gets location coordinates from API.&lt;/div&gt;&lt;div style=&quot;&quot;&gt;- fetchCoordinatesFromAPI(): Calls external API.&lt;/div&gt;&lt;div style=&quot;&quot;&gt;- handleExternalError(): Handles API errors.&lt;/div&gt;&lt;/font&gt;&lt;/div&gt;" style="text;html=1;align=center;verticalAlign=middle;resizable=0;points=[];autosize=1;strokeColor=none;fillColor=none;" parent="1" vertex="1">
          <mxGeometry x="1450" y="-20" width="670" height="1210" as="geometry" />
        </mxCell>
      </root>
    </mxGraphModel>
  </diagram>
</mxfile>
